PathFileType  4	(X/Y/Z) C:\Users\antoi\Documents\MyRepositories\mobilecap\ResultsAnalysis
DataRate	CameraRate	NumFrames	NumMarkers	Units	OrigDataRate	OrigDataStartFrame	OrigNumFrames
100.0	100.0	7	51	mm	100.0	251	286
Frame#	Time	r_knee			r_shank_antsup			r_ankle			r_calc			r_5meta			r_toe			L_knee			L_shank_antsup			L_ankle			L_calc			L_5meta			L_toe			r_sh2			r_sh3			r_sh4			L_sh2			L_sh3			r_thigh1			r_thigh2			r_thigh3			r_thigh4			r_thigh5			L_thigh1			L_thigh2			L_thigh3			L_thigh4			r.ASIS			r.PSIS			L.ASIS			L.PSIS			C7			R_Shoulder			L_Shoulder			R_Sternum			L_Sternum			R_humerus			R_elbow_med			R_elbow_lat			R_forearm			R_wrist_radius			R_wrist_ulna			L_humerus			L_elbow_med			L_elbow_lat			L_forearm			L_wrist_radius			L_wrist_ulna			R_HJC			L_HJC			R_HJC_reg			L_HJC_reg			
		X1	Y1	Z1	X2	Y2	Z2	X3	Y3	Z3	X4	Y4	Z4	X5	Y5	Z5	X6	Y6	Z6	X7	Y7	Z7	X8	Y8	Z8	X9	Y9	Z9	X10	Y10	Z10	X11	Y11	Z11	X12	Y12	Z12	X13	Y13	Z13	X14	Y14	Z14	X15	Y15	Z15	X16	Y16	Z16	X17	Y17	Z17	X18	Y18	Z18	X19	Y19	Z19	X20	Y20	Z20	X21	Y21	Z21	X22	Y22	Z22	X23	Y23	Z23	X24	Y24	Z24	X25	Y25	Z25	X26	Y26	Z26	X27	Y27	Z27	X28	Y28	Z28	X29	Y29	Z29	X30	Y30	Z30	X31	Y31	Z31	X32	Y32	Z32	X33	Y33	Z33	X34	Y34	Z34	X35	Y35	Z35	X36	Y36	Z36	X37	Y37	Z37	X38	Y38	Z38	X39	Y39	Z39	X40	Y40	Z40	X41	Y41	Z41	X42	Y42	Z42	X43	Y43	Z43	X44	Y44	Z44	X45	Y45	Z45	X46	Y46	Z46	X47	Y47	Z47	X48	Y48	Z48	X49	Y49	Z49	X50	Y50	Z50	X51	Y51	Z51	

251	2.50000000	19.62180	935.87972	-249.95522	1.72491	785.59182	-244.46048	-186.06622	470.43751	-226.83997	-244.23450	498.52848	-284.45174	-135.60011	323.78174	-223.22541	-88.44462	323.84641	-274.04258	-62.27600	972.16146	-738.39653	-46.62378	773.68264	-769.71197	-187.01982	503.74984	-807.73418	-225.22332	501.89418	-727.84262	-151.65003	358.97048	-883.95569	-84.19826	348.07793	-848.02160	-39.89676	679.46058	-242.48725	-59.84325	808.74220	-209.32493	-104.68451	706.73423	-198.79635	-122.14589	804.84627	-802.44329	-152.17663	688.01800	-805.66870	12.91154	1232.86444	-241.45477	44.23517	1125.04918	-234.82117	-11.81275	1086.07157	-229.04629	-92.38224	1202.86621	-271.32627	-61.72293	1089.04447	-254.65250	-9.62269	1267.35420	-676.14139	-1.43674	1136.48455	-707.68229	-119.48429	1266.69855	-679.52062	-109.46189	1134.83509	-719.56991	36.72200	1511.21651	-320.26631	-155.97681	1544.65697	-378.24637	-7.17428	1519.21698	-587.53690	-169.49281	1552.98151	-469.33891	-79.55919	2029.19883	-442.36735	41.43814	1995.23807	-294.17558	-44.78181	1995.72588	-620.17611	65.63017	1945.05432	-437.84380	58.86580	1950.85033	-490.27190	78.30084	1751.53411	-182.30124	1.12440	1613.36265	-160.04205	41.69068	1658.71279	-95.19414	219.17663	1644.20652	-211.14450	288.39037	1639.12876	-268.95291	296.17709	1614.17832	-241.28529	-18.44328	1736.63086	-740.83909	-116.47118	1638.78647	-749.91227	-55.41873	1663.83798	-806.59391	108.36250	1654.37591	-684.51347	152.47222	1657.46652	-630.43262	166.34262	1636.09885	-652.10137	-44.96575	1417.27117	-348.46163	-81.52833	1427.98486	-542.22728	-37.64265	1423.05281	-356.36849	-63.78478	1439.15283	-532.55335	
252	2.51000000	20.40326	932.44679	-246.34093	3.11743	781.87674	-240.88749	-184.74496	466.17506	-223.93483	-242.99713	492.54386	-282.44323	-130.52441	321.08012	-218.66000	-82.92451	322.05082	-268.81908	-61.10933	968.27486	-734.99823	-42.47501	769.56558	-764.89174	-180.34797	498.14585	-804.54564	-219.14928	495.54677	-724.86125	-142.16953	353.84405	-880.62075	-74.70275	344.18863	-843.86045	-38.40730	675.48024	-239.25310	-58.20227	804.67224	-205.31644	-102.98076	702.67688	-194.90791	-117.31065	800.09414	-799.97540	-146.39946	683.03176	-803.13285	13.84076	1229.41497	-238.64341	45.61411	1121.66339	-231.85626	-10.62870	1082.77687	-225.46190	-91.54100	1199.35860	-267.54042	-60.72294	1085.74084	-250.62398	-9.69762	1263.63648	-674.42254	-1.52084	1132.72529	-705.69231	-119.62810	1262.93996	-676.66042	-109.87084	1130.77881	-715.97490	37.59844	1507.10269	-318.59463	-154.94091	1541.77035	-376.01008	-6.67874	1515.28542	-585.78787	-168.50900	1550.10543	-467.15768	-77.71318	2025.68648	-440.89428	43.50515	1991.37660	-293.04335	-43.72964	1992.47788	-618.10737	67.50172	1941.84215	-437.37802	60.25381	1946.84255	-489.08905	81.06458	1747.92771	-181.11915	4.70253	1609.62663	-158.72059	44.96444	1655.04465	-93.79788	222.42868	1641.86954	-209.48721	292.34991	1637.76349	-266.85300	299.65126	1612.13163	-239.92299	-17.36873	1733.03185	-738.20110	-115.19631	1634.91338	-746.87699	-54.12498	1659.62379	-803.53819	109.52212	1651.46838	-681.40165	153.84724	1654.74541	-627.09245	167.73252	1633.19204	-648.52937	-44.66191	1413.66291	-346.52793	-81.57192	1424.55066	-540.21871	-37.47013	1419.48265	-354.51679	-63.69350	1435.59187	-530.68283	
253	2.52000000	21.31292	928.00242	-242.79978	4.74391	777.07456	-237.60227	-183.54947	460.96323	-221.20306	-241.71472	485.43519	-280.74988	-125.59317	317.72932	-213.66941	-77.42613	319.45796	-263.12398	-59.77079	963.39055	-731.73942	-38.53240	764.47110	-759.85044	-173.82422	491.73889	-801.56726	-213.36372	488.57087	-722.15733	-132.91277	347.66429	-876.95430	-65.50835	339.18831	-839.21924	-36.66299	670.35232	-236.44086	-56.17804	799.51777	-201.37814	-100.90165	697.38583	-190.87965	-112.61223	794.67917	-797.32556	-140.88924	677.29030	-800.46015	14.97065	1225.08275	-236.23860	47.82959	1116.14709	-229.38878	-9.15773	1078.62727	-221.90355	-90.55672	1194.84959	-263.87050	-59.48488	1081.42916	-246.59577	-9.84781	1258.86680	-672.98575	-1.53859	1127.84323	-703.93084	-119.81834	1257.93575	-673.54216	-110.30332	1125.56067	-712.03270	38.28045	1502.21450	-316.63607	-154.03048	1537.85624	-373.87363	-5.86809	1510.44399	-583.65932	-167.51308	1546.18164	-465.28983	-75.71133	2021.15890	-439.44517	45.53506	1986.53648	-291.93644	-42.38644	1988.09366	-615.91388	69.39847	1937.55957	-436.89390	60.86923	1940.95353	-489.63938	83.73381	1743.44264	-179.67770	7.92666	1604.95870	-157.10070	48.10755	1650.39973	-92.24480	225.48035	1638.60573	-208.46573	295.78973	1635.48922	-265.11234	303.05554	1609.49346	-238.66104	-16.24932	1728.46145	-735.63921	-113.80477	1630.01951	-743.76717	-52.88408	1654.45488	-800.66717	110.73723	1647.71978	-678.65618	155.29518	1651.20227	-623.93807	169.12060	1629.26998	-644.05893	-44.43305	1409.18621	-344.41920	-81.24992	1420.13149	-538.12426	-37.30583	1415.08617	-352.46888	-63.27624	1431.12282	-528.55348	
254	2.53000000	22.52452	922.58736	-239.27030	6.48148	771.20201	-234.61558	-182.47660	454.90181	-218.38314	-240.48261	477.16315	-278.94776	-120.54663	313.86548	-208.16161	-71.90171	316.21021	-257.14188	-58.20385	957.49532	-728.39326	-34.80208	758.45927	-755.08110	-167.58454	484.46381	-798.66198	-208.01081	480.90765	-719.79029	-123.92549	340.09885	-872.39392	-56.58232	333.49101	-834.47425	-34.82338	664.46611	-233.68826	-53.96086	793.43050	-197.48369	-98.48180	691.10018	-186.84922	-108.21694	788.52126	-794.40024	-135.72579	670.87466	-797.73223	16.32732	1219.80015	-233.97811	49.80878	1111.02095	-226.93808	-7.37416	1073.65776	-218.35665	-89.48767	1189.43046	-260.06379	-57.95905	1076.12289	-242.65043	-9.92226	1253.11856	-671.81995	-1.93576	1122.05730	-702.05113	-119.88886	1251.73960	-670.06313	-110.64935	1119.19010	-707.90764	38.85589	1496.65972	-314.55820	-153.24680	1532.88074	-371.79479	-4.98909	1504.63371	-581.28858	-166.60202	1541.10328	-463.57970	-73.65169	2015.71156	-437.67467	47.51373	1980.75640	-290.74766	-40.94702	1982.70280	-614.34676	71.18701	1932.38022	-436.35174	62.23122	1934.57472	-488.74968	86.37376	1738.02406	-178.18244	10.94846	1599.01693	-155.19216	51.25730	1644.91571	-90.68668	228.50450	1634.56913	-207.36059	298.73666	1632.01554	-264.12522	306.38200	1606.17453	-237.62941	-15.09870	1722.84274	-733.11244	-112.31804	1624.02947	-740.63528	-51.67860	1648.35796	-798.10330	112.06914	1643.01610	-676.13015	156.79440	1646.93078	-621.52833	170.64523	1624.77591	-640.97882	-44.15126	1403.88035	-342.14372	-80.70383	1414.64390	-535.90862	-37.06124	1409.90886	-350.25581	-62.66124	1425.67081	-526.18755	
255	2.54000000	24.02141	916.15773	-235.93885	8.19987	764.40377	-231.73845	-181.25290	448.00615	-215.23746	-238.99626	467.73734	-276.87255	-115.40728	309.24934	-202.32498	-66.41735	312.17801	-250.90128	-56.36422	950.66041	-724.90773	-31.14148	751.73911	-751.10017	-161.77346	476.39571	-795.83608	-203.28355	472.48537	-717.63824	-115.15506	331.29500	-867.04077	-47.89336	327.29971	-829.59751	-33.00472	657.74961	-230.90051	-51.83078	786.48593	-193.71047	-96.02848	684.07098	-183.00926	-104.18152	781.52504	-791.17826	-131.06227	663.79180	-794.84518	17.91258	1213.66612	-231.78605	51.00641	1106.69094	-224.56524	-5.19236	1067.77949	-214.93740	-88.28761	1183.04692	-256.04809	-56.14964	1069.85169	-238.76033	-9.86679	1246.41695	-670.73139	-2.57040	1115.43035	-699.97021	-119.77491	1244.43759	-666.40621	-110.66694	1111.74318	-703.86554	39.39207	1490.16468	-312.70381	-152.56724	1526.81479	-369.76529	-4.20481	1497.88009	-578.90648	-165.83347	1534.92856	-461.62141	-71.55648	2009.34655	-435.68685	49.46325	1974.01359	-289.39909	-39.46885	1976.37981	-613.32864	72.95962	1926.28988	-435.66448	64.38951	1927.87516	-486.34355	89.00976	1731.65981	-176.63025	14.09751	1591.99811	-153.46316	54.56240	1638.44059	-89.20039	231.61005	1629.81070	-205.80172	301.65064	1627.77863	-263.13257	309.71340	1602.20881	-236.44056	-13.97865	1716.01692	-730.72249	-110.80652	1616.89844	-737.65267	-50.48461	1641.23750	-795.61661	113.50473	1637.33296	-673.75184	158.36908	1641.80840	-619.68283	172.35508	1619.82591	-639.97063	-43.80326	1397.56025	-339.91830	-80.23103	1408.15653	-533.71636	-36.73851	1403.78501	-348.20417	-62.10038	1419.29668	-523.81257	
256	2.55000000	25.64263	908.70369	-233.02402	9.86005	756.82141	-228.75625	-179.53238	440.23947	-211.83548	-237.06054	457.33702	-274.44698	-110.23024	303.61764	-196.35214	-60.86670	307.19097	-244.44559	-54.19731	942.88881	-721.48451	-27.51167	744.23996	-747.66399	-156.45136	467.62637	-793.05955	-199.26613	463.16458	-715.59431	-106.39333	322.08549	-861.93679	-39.36152	320.56927	-824.35787	-31.22024	650.13148	-227.91143	-49.95921	778.72032	-190.14882	-93.90565	676.26466	-179.47912	-100.41823	773.71687	-787.85365	-126.91809	655.94784	-791.76675	19.59355	1206.78554	-229.72144	51.76436	1100.73600	-222.90180	-2.65261	1060.83912	-211.90254	-86.90455	1175.67734	-251.99304	-54.13210	1062.69397	-234.82778	-9.69262	1238.72317	-669.44127	-2.60317	1107.72915	-697.82926	-119.51622	1236.01268	-662.73275	-110.22021	1103.29939	-699.97499	39.86256	1482.59526	-310.97883	-151.99034	1519.64365	-367.74965	-3.37822	1490.20415	-576.82667	-165.17566	1527.69780	-459.41621	-69.36418	2001.90301	-433.95509	51.39940	1966.23909	-287.98504	-37.62190	1968.88409	-611.69790	74.90296	1919.04137	-434.83904	65.95570	1919.53369	-485.32710	91.61457	1724.35167	-174.87400	17.53072	1583.92698	-152.22541	57.92391	1630.76243	-87.66898	234.70712	1624.16240	-204.35187	304.63603	1622.84596	-261.93111	313.09034	1597.55236	-235.07209	-12.83259	1708.04558	-728.54130	-109.27184	1608.73998	-734.91062	-49.22740	1633.04051	-793.05364	115.02839	1630.66470	-671.59942	160.04676	1635.64639	-617.74888	174.12902	1613.82726	-638.82207	-43.42107	1390.13747	-337.85128	-79.81965	1400.71173	-531.65649	-36.37749	1396.51311	-346.36813	-61.60126	1411.92067	-521.73172	
257	2.56000000	27.26337	900.35887	-230.38924	11.48904	748.49503	-225.60271	-177.23707	431.58407	-208.28422	-234.79878	446.25664	-271.45580	-104.90925	296.98460	-190.27908	-54.96195	301.19508	-237.88999	-51.63668	934.12849	-718.31263	-23.94044	735.69874	-744.27301	-151.60306	458.07601	-790.06453	-195.88313	452.76746	-713.59173	-97.50231	313.12334	-857.89097	-30.92547	313.37725	-818.83212	-29.33203	641.68744	-224.62924	-48.35866	770.20700	-186.82506	-92.04268	667.55526	-176.29734	-96.78840	765.10170	-784.53894	-123.12468	647.23885	-788.50844	21.30357	1199.02700	-227.83719	52.64801	1092.47493	-221.95247	0.00737	1052.85180	-209.31010	-85.40377	1167.44983	-248.01771	-51.98513	1054.71256	-230.92947	-9.39992	1230.04877	-667.81730	-1.68733	1098.89878	-695.63225	-119.11013	1226.45283	-659.13279	-109.34789	1093.86770	-696.27161	40.12352	1474.15982	-308.77202	-151.59225	1511.41563	-365.69734	-2.53687	1481.51520	-574.83003	-164.55493	1519.33383	-457.41033	-67.02839	1993.29157	-432.55558	53.27140	1957.48661	-286.52200	-35.30285	1960.07976	-609.43050	77.07124	1910.59409	-433.85324	66.62131	1908.99225	-486.38890	94.16982	1716.08646	-172.93957	21.30090	1574.27291	-151.13155	61.16413	1622.01349	-86.09676	237.70033	1617.50562	-203.42635	307.41971	1616.90683	-260.96840	316.45271	1592.03900	-233.89735	-11.56107	1699.06742	-726.44351	-107.63906	1599.64945	-732.31786	-47.83005	1623.85234	-790.62115	116.65518	1622.99462	-669.66065	161.85602	1628.42968	-615.72806	175.96054	1606.52721	-636.69318	-43.16104	1381.76890	-335.63068	-79.28265	1392.18778	-529.49518	-36.21748	1388.17674	-344.20151	-61.02602	1403.33063	-519.71765	
